<svg xmlns="http://www.w3.org/2000/svg" aria-hidden="true" style="position:absolute;width:0;height:0;overflow:hidden">
  <defs>
    <symbol id="icon-arrows-right" viewBox="0 0 31 32">
      <path d="M13.183 10.509 18.719 16l-5.536 5.491 1.802 1.818L22.354 16l-7.369-7.309z"/>
      <path d="m8.586 8.691-1.802 1.818L12.319 16l-5.536 5.491 1.802 1.818L15.954 16z"/>
    </symbol>
    <symbol id="icon-envelope" viewBox="0 0 31 32">
      <path d="M25.865 5.928H5.169a2.589 2.589 0 0 0-2.586 2.587v15.522a2.59 2.59 0 0 0 2.586 2.587h20.696a2.589 2.589 0 0 0 2.586-2.587V8.515a2.59 2.59 0 0 0-2.586-2.587zm0 2.588v.661l-10.348 8.05L5.169 9.178v-.663zM5.169 24.037V12.453l9.554 7.431c.216.171.493.275.795.275s.578-.104.797-.277l-.003.002 9.554-7.431.002 11.584z"/>
    </symbol>
    <symbol id="icon-Facebook" viewBox="0 0 32 32">
      <path d="M29.333 16.405c0-7.409-5.969-13.415-13.333-13.415s-13.333 6.006-13.333 13.415c0 6.696 4.876 12.245 11.25 13.252v-9.374h-3.385v-3.878h3.385v-2.955c0-3.362 1.991-5.219 5.036-5.219 1.459 0 2.985 0.262 2.985 0.262v3.301h-1.681c-1.656 0-2.173 1.034-2.173 2.095v2.516h3.698l-0.591 3.878h-3.107v9.374c6.374-1.006 11.25-6.556 11.25-13.252z"></path>
    </symbol>
    <symbol id="icon-Instagram" viewBox="0 0 32 32">
      <path d="M15.998 6.161c3.206 0 3.585 0.014 4.846 0.071 1.172 0.052 1.804 0.248 2.226 0.412 0.558 0.216 0.961 0.478 1.378 0.895 0.422 0.422 0.679 0.82 0.9 1.378 0.164 0.422 0.361 1.059 0.412 2.226 0.056 1.266 0.071 1.645 0.071 4.847s-0.014 3.585-0.071 4.847c-0.052 1.172-0.248 1.804-0.412 2.227-0.216 0.558-0.478 0.961-0.895 1.377-0.422 0.422-0.82 0.679-1.378 0.9-0.422 0.164-1.060 0.361-2.226 0.412-1.266 0.056-1.645 0.071-4.847 0.071s-3.585-0.014-4.847-0.071c-1.172-0.052-1.804-0.248-2.226-0.412-0.558-0.216-0.961-0.478-1.378-0.895-0.422-0.422-0.679-0.82-0.9-1.378-0.164-0.422-0.361-1.060-0.412-2.226-0.056-1.266-0.071-1.645-0.071-4.847s0.014-3.585 0.071-4.847c0.052-1.172 0.248-1.804 0.412-2.226 0.216-0.558 0.478-0.961 0.895-1.378 0.422-0.422 0.82-0.679 1.378-0.9 0.422-0.164 1.059-0.361 2.226-0.412 1.261-0.056 1.641-0.071 4.847-0.071h0.001zM15.998 4.001c-3.258 0-3.665 0.014-4.945 0.071-1.275 0.056-2.151 0.262-2.91 0.558-0.792 0.309-1.462 0.717-2.127 1.387-0.67 0.666-1.078 1.336-1.387 2.123-0.295 0.764-0.502 1.636-0.558 2.91-0.056 1.285-0.071 1.692-0.071 4.949s0.014 3.665 0.071 4.945c0.056 1.275 0.262 2.151 0.558 2.91 0.31 0.792 0.717 1.462 1.387 2.127 0.665 0.665 1.336 1.078 2.123 1.383 0.764 0.295 1.636 0.502 2.91 0.558 1.279 0.056 1.687 0.071 4.945 0.071s3.666-0.014 4.945-0.071c1.275-0.056 2.151-0.262 2.91-0.558 0.787-0.305 1.458-0.717 2.123-1.383s1.078-1.336 1.383-2.123c0.295-0.764 0.502-1.635 0.558-2.91 0.056-1.279 0.071-1.687 0.071-4.945s-0.014-3.665-0.071-4.945c-0.056-1.275-0.262-2.151-0.558-2.91-0.295-0.797-0.703-1.467-1.373-2.133-0.665-0.665-1.336-1.078-2.123-1.383-0.764-0.295-1.635-0.502-2.91-0.558-1.284-0.061-1.692-0.075-4.949-0.075l-0.001 0.001z"></path>
      <path d="M15.998 9.836c-3.402 0-6.163 2.76-6.163 6.163s2.76 6.163 6.163 6.163c3.403 0 6.163-2.76 6.163-6.163s-2.76-6.163-6.163-6.163zM15.998 19.997c-2.208 0-3.998-1.79-3.998-3.998s1.79-3.998 3.998-3.998c2.208 0 3.998 1.79 3.998 3.998s-1.79 3.998-3.998 3.998z"></path>
      <path d="M23.843 9.592c0 0.795-0.644 1.439-1.439 1.439s-1.439-0.644-1.439-1.439 0.644-1.439 1.439-1.439c0.795 0 1.439 0.644 1.439 1.439z"></path>
    </symbol>
    <symbol id="icon-map-pin" viewBox="0 0 32 32">
      <path d="m16.005 22.673 1.334-2.667v-6.858c2.295-.596 4.001-2.667 4.001-5.146 0-2.942-2.393-5.335-5.335-5.335S10.67 5.06 10.67 8.002c0 2.478 1.706 4.549 4.001 5.146v6.858zM13.337 8.002c0-1.471 1.196-2.667 2.667-2.667s2.667 1.196 2.667 2.667-1.196 2.667-2.667 2.667-2.667-1.196-2.667-2.667z"/>
      <path d="m21.696 14.088-.711 2.571c3.456.955 5.69 2.791 5.69 4.68 0 2.523-4.381 5.335-10.67 5.335s-10.67-2.811-10.67-5.335c0-1.889 2.234-3.725 5.691-4.681l-.711-2.571c-4.717 1.304-7.648 4.082-7.648 7.253 0 4.487 5.859 8.002 13.337 8.002s13.337-3.516 13.337-8.002c0-3.17-2.93-5.948-7.646-7.251z"/>
    </symbol>
    <symbol id="icon-map" viewBox="0 0 31 32">
      <path d="M15.517 18.863a5.18 5.18 0 0 0 5.175-5.173 5.181 5.181 0 0 0-5.174-5.174 5.18 5.18 0 0 0-5.174 5.173 5.18 5.18 0 0 0 5.173 5.174zm0-7.761a2.59 2.59 0 0 1 2.587 2.587 2.59 2.59 0 0 1-2.587 2.587 2.589 2.589 0 0 1-2.586-2.587 2.59 2.59 0 0 1 2.586-2.587z"/>
      <path d="M14.767 28.97a1.283 1.283 0 0 0 1.504-.002l-.004.003c.393-.278 9.635-6.951 9.597-15.281 0-5.705-4.642-10.348-10.348-10.348S5.169 7.985 5.169 13.683c-.038 8.337 9.204 15.009 9.597 15.288zm.75-23.042c4.28 0 7.761 3.481 7.761 7.768.027 5.74-5.675 10.894-7.761 12.585-2.084-1.692-7.788-6.848-7.761-12.592 0-4.28 3.481-7.761 7.761-7.761z"/>
    </symbol>
    <symbol id="icon-mobile-menu" viewBox="0 0 32 32">
      <path d="M5.335 8.002h21.34v2.667H5.335zm0 6.669h21.34v2.667H5.335zm0 6.669h21.34v2.667H5.335z"/>
    </symbol>
    <symbol id="icon-x-menu" viewBox="0 0 32 32">
      <path d="M21.589 8.459l-5.657 5.656-5.656-5.656-1.885 1.885 5.656 5.656-5.656 5.656 1.885 1.885 5.656-5.656 5.657 5.656 1.885-1.885-5.656-5.656 5.656-5.656-1.885-1.885z"></path>
    </symbol>
    <symbol id="icon-phone" viewBox="0 0 31 32">
      <path d="M22.899 16.656a1.285 1.285 0 0 0-1.828 0l-2.062 2.061c-.956-.284-2.74-.931-3.871-2.061-1.129-1.131-1.776-2.914-2.06-3.871l2.061-2.061a1.285 1.285 0 0 0 0-1.828L9.965 3.721c-.234-.235-.557-.38-.915-.38s-.681.145-.915.38L4.627 7.229a2.584 2.584 0 0 0-.758 1.831v.027-.001c.029 1.841.517 8.239 5.559 13.281s11.44 5.529 13.284 5.559h.036c.683 0 1.329-.268 1.817-.757l3.508-3.508a1.29 1.29 0 0 0 0-1.83zm-.165 8.681c-1.613-.027-7.137-.461-11.476-4.802-4.354-4.353-4.776-9.895-4.802-11.477L9.05 6.464l3.345 3.345-1.672 1.672a1.285 1.285 0 0 0-.351 1.188l-.002-.008c.031.149.791 3.677 2.937 5.824s5.675 2.906 5.824 2.937a1.275 1.275 0 0 0 1.179-.35l1.674-1.673 3.345 3.345z"/>
    </symbol>
    <symbol id="icon-single-arrow" viewBox="0 0 31 32">
      <path d="m12.429 22.692 7.305-7.306-7.305-7.305-1.81 1.81 5.495 5.496-5.495 5.495z"/>
    </symbol>
    <symbol id="icon-star" viewBox="0 0 32 32">
      <path stroke-linejoin="miter" stroke-linecap="butt" stroke-miterlimit="4" stroke-width="1.6" d="M15.25 1.534c0.275-0.654 1.225-0.654 1.5 0l3.245 7.709c0.35 0.83 1.137 1.392 2.033 1.463l8.425 0.667c0.732 0.058 0.994 0.936 0.466 1.384l-6.42 5.433c-0.687 0.582-0.991 1.5-0.78 2.376l1.962 8.122c0.159 0.659-0.578 1.237-1.216 0.853h-0.002l-7.211-4.352c-0.77-0.464-1.737-0.464-2.506 0l-7.213 4.352c-0.637 0.384-1.375-0.194-1.216-0.853l1.962-8.122c0.212-0.877-0.092-1.795-0.78-2.376l-6.42-5.433c-0.529-0.448-0.267-1.326 0.466-1.384l8.425-0.667c0.896-0.071 1.683-0.633 2.033-1.463l3.245-7.709z"></path>
    </symbol>
    <symbol id="icon-x" viewBox="0 0 32 32">
      <path d="M22.901 5.657h3.68l-8.040 9.037 9.459 12.297h-7.406l-5.801-7.458-6.637 7.458h-3.682l8.6-9.666-9.074-11.668h7.594l5.243 6.817 6.064-6.817zM21.61 24.824h2.039l-13.163-17.115h-2.188l13.312 17.115z"></path>
    </symbol>
  </defs>
</svg>
