<svg aria-hidden="true" style="position: absolute; width: 0; height: 0; overflow: hidden;" version="1.1" xmlns="http://www.w3.org/2000/svg" xmlns:xlink="http://www.w3.org/1999/xlink">
<defs>
<symbol id="icon-arrows-right" viewBox="0 0 31 32">
<path d="M13.183 10.509l5.536 5.491-5.536 5.491 1.802 1.818 7.369-7.309-7.369-7.309z"></path>
<path d="M8.586 8.691l-1.802 1.818 5.535 5.491-5.536 5.491 1.802 1.818 7.369-7.309z"></path>
</symbol>
<symbol id="icon-envelope" viewBox="0 0 31 32">
<path d="M25.865 5.928h-20.696c-1.428 0.002-2.585 1.159-2.586 2.587v15.522c0.002 1.428 1.158 2.585 2.586 2.587h20.696c1.428-0.002 2.585-1.159 2.586-2.587v-15.522c-0.002-1.428-1.158-2.585-2.586-2.587h-0zM25.865 8.516v0.661l-10.348 8.050-10.348-8.049v-0.663zM5.169 24.037v-11.584l9.554 7.431c0.216 0.171 0.493 0.275 0.795 0.275s0.578-0.104 0.797-0.277l-0.003 0.002 9.554-7.431 0.002 11.584z"></path>
</symbol>
<symbol id="icon-Facebook" viewBox="0 0 31 32">
<path d="M28.164 16.745c0-7.113-5.731-12.879-12.8-12.879s-12.8 5.766-12.8 12.877c0 6.428 4.681 11.757 10.801 12.723v-8.998h-3.251v-3.722h3.251v-2.838c0-3.228 1.91-5.010 4.835-5.010 1.4 0 2.865 0.251 2.865 0.251v3.169h-1.613c-1.591 0-2.086 0.993-2.086 2.011v2.417h3.549l-0.567 3.722h-2.982v8.998c6.118-0.965 10.799-6.292 10.799-12.721z"></path>
</symbol>
<symbol id="icon-Instagram" viewBox="0 0 31 32">
<path d="M15.363 6.911c3.077 0 3.442 0.013 4.652 0.068 1.126 0.049 1.732 0.238 2.138 0.396 0.535 0.207 0.922 0.46 1.322 0.859 0.406 0.406 0.653 0.788 0.864 1.324 0.157 0.406 0.346 1.016 0.397 2.138 0.054 1.216 0.067 1.58 0.067 4.653s-0.013 3.442-0.068 4.653c-0.049 1.125-0.238 1.732-0.396 2.138-0.195 0.518-0.487 0.96-0.858 1.322l-0.001 0.001c-0.406 0.406-0.788 0.653-1.324 0.864-0.404 0.157-1.016 0.346-2.138 0.397-1.215 0.052-1.578 0.067-4.652 0.067s-3.443-0.013-4.653-0.068c-1.126-0.050-1.733-0.238-2.138-0.397-0.519-0.194-0.961-0.487-1.323-0.857l-0.001-0.001c-0.373-0.363-0.668-0.805-0.856-1.299l-0.008-0.025c-0.157-0.406-0.346-1.016-0.397-2.138-0.052-1.215-0.067-1.58-0.067-4.653s0.013-3.442 0.068-4.653c0.050-1.125 0.238-1.732 0.397-2.138 0.206-0.535 0.458-0.922 0.858-1.322 0.363-0.373 0.805-0.668 1.299-0.856l0.025-0.008c0.406-0.157 1.018-0.346 2.138-0.397 1.211-0.054 1.574-0.067 4.653-0.067zM15.362 4.837c-3.127 0-3.519 0.013-4.748 0.067-1.224 0.054-2.065 0.252-2.794 0.536-0.799 0.306-1.48 0.758-2.041 1.33l-0.001 0.001c-0.572 0.56-1.025 1.24-1.318 1.999l-0.013 0.039c-0.284 0.735-0.483 1.571-0.538 2.794-0.050 1.235-0.065 1.624-0.065 4.751s0.013 3.519 0.068 4.748c0.054 1.224 0.252 2.065 0.535 2.794 0.306 0.799 0.758 1.48 1.33 2.041l0.001 0.001c0.561 0.571 1.241 1.023 2 1.314l0.039 0.013c0.733 0.284 1.571 0.483 2.794 0.536 1.229 0.054 1.619 0.068 4.746 0.068s3.52-0.014 4.749-0.068c1.222-0.054 2.065-0.252 2.793-0.536 0.798-0.305 1.477-0.756 2.037-1.326l0.001-0.001c0.639-0.64 1.036-1.281 1.327-2.038 0.284-0.733 0.481-1.571 0.536-2.794 0.054-1.229 0.068-1.619 0.068-4.746s-0.014-3.519-0.068-4.749c-0.055-1.222-0.252-2.065-0.536-2.793-0.293-0.804-0.743-1.489-1.317-2.047l-0.001-0.001c-0.56-0.57-1.24-1.021-1.999-1.313l-0.039-0.013c-0.733-0.284-1.569-0.483-2.794-0.536-1.233-0.058-1.623-0.072-4.751-0.072z"></path>
<path d="M15.363 10.437c-0.045-0.001-0.097-0.002-0.15-0.002-3.268 0-5.917 2.649-5.917 5.917s2.649 5.917 5.917 5.917c0.053 0 0.106-0.001 0.159-0.002l-0.008 0c3.202-0.085 5.765-2.701 5.765-5.915 0-3.216-2.565-5.832-5.761-5.915l-0.008-0zM15.361 20.192c-0.021 0-0.045 0.001-0.070 0.001-2.12 0-3.839-1.719-3.839-3.839s1.719-3.839 3.839-3.839c0.025 0 0.049 0 0.074 0.001l-0.004-0c2.090 0.039 3.769 1.743 3.769 3.838s-1.679 3.799-3.765 3.838l-0.004 0zM22.893 10.204c0.001 0.018 0.001 0.039 0.001 0.059 0 0.763-0.619 1.382-1.382 1.382s-1.382-0.619-1.382-1.382c0-0.021 0-0.042 0.001-0.062l-0 0.003c0.033-0.737 0.639-1.323 1.381-1.323s1.348 0.585 1.381 1.32l0 0.003z"></path>
</symbol>
<symbol id="icon-map-pin" viewBox="0 0 32 32">
<path d="M16.005 22.673l1.334-2.667v-6.858c2.295-0.596 4.001-2.667 4.001-5.146 0-2.942-2.393-5.335-5.335-5.335s-5.335 2.393-5.335 5.335c0 2.478 1.706 4.549 4.001 5.146v6.858zM13.337 8.002c0-1.471 1.196-2.667 2.667-2.667s2.667 1.196 2.667 2.667-1.196 2.667-2.667 2.667-2.667-1.196-2.667-2.667z"></path>
<path d="M21.696 14.088l-0.711 2.571c3.456 0.955 5.69 2.791 5.69 4.68 0 2.523-4.381 5.335-10.67 5.335s-10.67-2.811-10.67-5.335c0-1.889 2.234-3.725 5.691-4.681l-0.711-2.571c-4.717 1.304-7.648 4.082-7.648 7.253 0 4.487 5.859 8.002 13.337 8.002s13.337-3.516 13.337-8.002c0-3.17-2.93-5.948-7.646-7.251z"></path>
</symbol>
<symbol id="icon-map" viewBox="0 0 31 32">
<path d="M15.517 18.863c2.856-0.003 5.171-2.317 5.175-5.173v-0c-0.004-2.856-2.318-5.17-5.174-5.174h-0c-2.856 0.004-5.17 2.318-5.174 5.173v0c0.004 2.856 2.318 5.17 5.173 5.174h0zM15.517 11.102c1.428 0.002 2.586 1.159 2.587 2.587v0c-0.002 1.428-1.159 2.586-2.587 2.587h-0c-1.428-0.002-2.585-1.159-2.586-2.587v-0c0.002-1.428 1.158-2.585 2.586-2.587h0z"></path>
<path d="M14.767 28.97c0.208 0.15 0.469 0.241 0.75 0.241s0.542-0.090 0.754-0.243l-0.004 0.003c0.393-0.278 9.635-6.951 9.597-15.281 0-5.705-4.642-10.348-10.348-10.348s-10.347 4.643-10.347 10.341c-0.038 8.337 9.204 15.009 9.597 15.288zM15.517 5.928c4.28 0 7.761 3.481 7.761 7.768 0.027 5.74-5.675 10.894-7.761 12.585-2.084-1.692-7.788-6.848-7.761-12.592 0-4.28 3.481-7.761 7.761-7.761z"></path>
</symbol>
<symbol id="icon-mobile-menu" viewBox="0 0 32 32">
<path d="M5.335 8.002h21.34v2.667h-21.34zM5.335 14.671h21.34v2.667h-21.34zM5.335 21.34h21.34v2.667h-21.34z"></path>
</symbol>
<symbol id="icon-phone" viewBox="0 0 31 32">
<path d="M22.899 16.656c-0.234-0.235-0.557-0.38-0.914-0.38s-0.681 0.145-0.914 0.38l-2.062 2.061c-0.956-0.284-2.74-0.931-3.871-2.061-1.129-1.131-1.776-2.914-2.060-3.871l2.061-2.061c0.235-0.234 0.38-0.557 0.38-0.914s-0.145-0.681-0.38-0.914l-5.174-5.175c-0.234-0.235-0.557-0.38-0.915-0.38s-0.681 0.145-0.915 0.38l-3.508 3.508c-0.468 0.469-0.758 1.116-0.758 1.831 0 0.009 0 0.018 0 0.027v-0.001c0.029 1.841 0.517 8.239 5.559 13.281s11.44 5.529 13.284 5.559h0.036c0.683 0 1.329-0.268 1.817-0.757l3.508-3.508c0.234-0.234 0.379-0.558 0.379-0.915s-0.145-0.681-0.379-0.915v0zM22.734 25.337c-1.613-0.027-7.137-0.461-11.476-4.802-4.354-4.353-4.776-9.895-4.802-11.477l2.594-2.594 3.345 3.345-1.672 1.672c-0.235 0.234-0.38 0.557-0.38 0.914 0 0.094 0.010 0.186 0.029 0.274l-0.002-0.008c0.031 0.149 0.791 3.677 2.937 5.824s5.675 2.906 5.824 2.937c0.081 0.018 0.174 0.029 0.27 0.029 0.356 0 0.677-0.145 0.909-0.379l1.674-1.673 3.345 3.345z"></path>
</symbol>
<symbol id="icon-single-arrow" viewBox="0 0 31 32">
<path d="M12.429 22.692l7.305-7.306-7.305-7.305-1.81 1.81 5.495 5.496-5.495 5.495z"></path>
</symbol>
<symbol id="icon-star" viewBox="0 0 34 32">
<path stroke-linejoin="miter" stroke-linecap="butt" stroke-miterlimit="4" stroke-width="1.6842" d="M16.052 1.365c0.137-0.307 0.439-0.516 0.79-0.516s0.653 0.21 0.788 0.511l0.002 0.005 3.416 8.115c0.369 0.874 1.196 1.465 2.139 1.539l8.869 0.702c0.437 0.024 0.783 0.385 0.783 0.826 0 0.252-0.113 0.478-0.291 0.63l-0.001 0.001-6.759 5.72c-0.724 0.611-1.044 1.578-0.82 2.501l2.067 8.549c0.168 0.694-0.61 1.304-1.28 0.899h-0.002l-7.591-4.581c-0.376-0.23-0.832-0.366-1.319-0.366s-0.942 0.136-1.33 0.372l0.011-0.006-7.592 4.581c-0.67 0.404-1.448-0.205-1.28-0.899l2.067-8.549c0.044-0.175 0.069-0.376 0.069-0.584 0-0.767-0.344-1.454-0.887-1.915l-0.004-0.003-6.757-5.721c-0.18-0.153-0.293-0.379-0.293-0.631 0-0.441 0.345-0.801 0.779-0.826l0.002-0 8.869-0.702c0.963-0.079 1.768-0.683 2.133-1.523l0.006-0.016z"></path>
</symbol>
<symbol id="icon-X" viewBox="0 0 31 32">
<path d="M21.99 6.426h3.533l-7.718 8.676 9.080 11.804h-7.109l-5.568-7.159-6.373 7.159h-3.535l8.256-9.279-8.71-11.2h7.29l5.034 6.543zM20.749 24.827h1.958l-12.637-16.43h-2.099z"></path>
</symbol>
</defs>
</svg>
