<svg xmlns="http://www.w3.org/2000/svg" aria-hidden="true" style="position:absolute;width:0;height:0;overflow:hidden">
  <defs>
    <symbol id="icon-arrows-right" viewBox="0 0 31 32">
      <path d="M13.183 10.509 18.719 16l-5.536 5.491 1.802 1.818L22.354 16l-7.369-7.309z"/>
      <path d="m8.586 8.691-1.802 1.818L12.319 16l-5.536 5.491 1.802 1.818L15.954 16z"/>
    </symbol>
    <symbol id="icon-envelope" viewBox="0 0 31 32">
      <path d="M25.865 5.928H5.169a2.589 2.589 0 0 0-2.586 2.587v15.522a2.59 2.59 0 0 0 2.586 2.587h20.696a2.589 2.589 0 0 0 2.586-2.587V8.515a2.59 2.59 0 0 0-2.586-2.587zm0 2.588v.661l-10.348 8.05L5.169 9.178v-.663zM5.169 24.037V12.453l9.554 7.431c.216.171.493.275.795.275s.578-.104.797-.277l-.003.002 9.554-7.431.002 11.584z"/>
    </symbol>
    <symbol id="icon-Facebook" viewBox="0 0 31 32">
      <path d="M28.164 16.745c0-7.113-5.731-12.879-12.8-12.879s-12.8 5.766-12.8 12.877c0 6.428 4.681 11.757 10.801 12.723v-8.998h-3.251v-3.722h3.251v-2.838c0-3.228 1.91-5.01 4.835-5.01 1.4 0 2.865.251 2.865.251v3.169h-1.613c-1.591 0-2.086.993-2.086 2.011v2.417h3.549l-.567 3.722h-2.982v8.998c6.118-.965 10.799-6.292 10.799-12.721z"/>
    </symbol>
    <symbol id="icon-Instagram" viewBox="0 0 31 32">
      <path d="M15.363 6.911c3.077 0 3.442.013 4.652.068 1.126.049 1.732.238 2.138.396.535.207.922.46 1.322.859a3.6 3.6 0 0 1 .864 1.324c.157.406.346 1.016.397 2.138.054 1.216.067 1.58.067 4.653s-.013 3.442-.068 4.653c-.049 1.125-.238 1.732-.396 2.138-.195.518-.487.96-.858 1.322l-.001.001a3.6 3.6 0 0 1-1.324.864c-.404.157-1.016.346-2.138.397-1.215.052-1.578.067-4.652.067s-3.443-.013-4.653-.068c-1.126-.05-1.733-.238-2.138-.397a3.596 3.596 0 0 1-1.323-.857l-.001-.001a3.603 3.603 0 0 1-.856-1.299l-.008-.025c-.157-.406-.346-1.016-.397-2.138-.052-1.215-.067-1.58-.067-4.653s.013-3.442.068-4.653c.05-1.125.238-1.732.397-2.138a3.55 3.55 0 0 1 .858-1.322 3.603 3.603 0 0 1 1.299-.856l.025-.008c.406-.157 1.018-.346 2.138-.397 1.211-.054 1.574-.067 4.653-.067zm-.001-2.074c-3.127 0-3.519.013-4.748.067-1.224.054-2.065.252-2.794.536a5.672 5.672 0 0 0-2.041 1.33l-.001.001A5.644 5.644 0 0 0 4.46 8.77l-.013.039c-.284.735-.483 1.571-.538 2.794-.05 1.235-.065 1.624-.065 4.751s.013 3.519.068 4.748c.054 1.224.252 2.065.535 2.794.306.799.758 1.48 1.33 2.041l.001.001a5.634 5.634 0 0 0 2 1.314l.039.013c.733.284 1.571.483 2.794.536 1.229.054 1.619.068 4.746.068s3.52-.014 4.749-.068c1.222-.054 2.065-.252 2.793-.536a5.66 5.66 0 0 0 2.037-1.326l.001-.001a5.608 5.608 0 0 0 1.327-2.038c.284-.733.481-1.571.536-2.794.054-1.229.068-1.619.068-4.746s-.014-3.519-.068-4.749c-.055-1.222-.252-2.065-.536-2.793a5.414 5.414 0 0 0-1.317-2.047l-.001-.001a5.645 5.645 0 0 0-1.999-1.313l-.039-.013c-.733-.284-1.569-.483-2.794-.536-1.233-.058-1.623-.072-4.751-.072z"/>
      <path d="M15.363 10.437a5.917 5.917 0 1 0-.15 11.832l.159-.002h-.008a5.917 5.917 0 0 0 .004-11.83h-.008zm-.002 9.755-.07.001a3.84 3.84 0 1 1 .074-7.677h-.004a3.84 3.84 0 0 1 .004 7.676h-.004zm7.532-9.988.001.059a1.382 1.382 0 0 1-2.764 0l.001-.062v.003a1.383 1.383 0 0 1 2.762-.003v.003z"/>
    </symbol>
    <symbol id="icon-map-pin" viewBox="0 0 32 32">
      <path d="m16.005 22.673 1.334-2.667v-6.858c2.295-.596 4.001-2.667 4.001-5.146 0-2.942-2.393-5.335-5.335-5.335S10.67 5.06 10.67 8.002c0 2.478 1.706 4.549 4.001 5.146v6.858zM13.337 8.002c0-1.471 1.196-2.667 2.667-2.667s2.667 1.196 2.667 2.667-1.196 2.667-2.667 2.667-2.667-1.196-2.667-2.667z"/>
      <path d="m21.696 14.088-.711 2.571c3.456.955 5.69 2.791 5.69 4.68 0 2.523-4.381 5.335-10.67 5.335s-10.67-2.811-10.67-5.335c0-1.889 2.234-3.725 5.691-4.681l-.711-2.571c-4.717 1.304-7.648 4.082-7.648 7.253 0 4.487 5.859 8.002 13.337 8.002s13.337-3.516 13.337-8.002c0-3.17-2.93-5.948-7.646-7.251z"/>
    </symbol>
    <symbol id="icon-map" viewBox="0 0 31 32">
      <path d="M15.517 18.863a5.18 5.18 0 0 0 5.175-5.173 5.181 5.181 0 0 0-5.174-5.174 5.18 5.18 0 0 0-5.174 5.173 5.18 5.18 0 0 0 5.173 5.174zm0-7.761a2.59 2.59 0 0 1 2.587 2.587 2.59 2.59 0 0 1-2.587 2.587 2.589 2.589 0 0 1-2.586-2.587 2.59 2.59 0 0 1 2.586-2.587z"/>
      <path d="M14.767 28.97a1.283 1.283 0 0 0 1.504-.002l-.004.003c.393-.278 9.635-6.951 9.597-15.281 0-5.705-4.642-10.348-10.348-10.348S5.169 7.985 5.169 13.683c-.038 8.337 9.204 15.009 9.597 15.288zm.75-23.042c4.28 0 7.761 3.481 7.761 7.768.027 5.74-5.675 10.894-7.761 12.585-2.084-1.692-7.788-6.848-7.761-12.592 0-4.28 3.481-7.761 7.761-7.761z"/>
    </symbol>
    <symbol id="icon-mobile-menu" viewBox="0 0 32 32">
      <path d="M5.335 8.002h21.34v2.667H5.335zm0 6.669h21.34v2.667H5.335zm0 6.669h21.34v2.667H5.335z"/>
    </symbol>
    <symbol id="icon-x-menu" viewBox="0 0 32 32">
      <path d="M21.589 8.459l-5.657 5.656-5.656-5.656-1.885 1.885 5.656 5.656-5.656 5.656 1.885 1.885 5.656-5.656 5.657 5.656 1.885-1.885-5.656-5.656 5.656-5.656-1.885-1.885z"></path>
    </symbol>
    <symbol id="icon-phone" viewBox="0 0 31 32">
      <path d="M22.899 16.656a1.285 1.285 0 0 0-1.828 0l-2.062 2.061c-.956-.284-2.74-.931-3.871-2.061-1.129-1.131-1.776-2.914-2.06-3.871l2.061-2.061a1.285 1.285 0 0 0 0-1.828L9.965 3.721c-.234-.235-.557-.38-.915-.38s-.681.145-.915.38L4.627 7.229a2.584 2.584 0 0 0-.758 1.831v.027-.001c.029 1.841.517 8.239 5.559 13.281s11.44 5.529 13.284 5.559h.036c.683 0 1.329-.268 1.817-.757l3.508-3.508a1.29 1.29 0 0 0 0-1.83zm-.165 8.681c-1.613-.027-7.137-.461-11.476-4.802-4.354-4.353-4.776-9.895-4.802-11.477L9.05 6.464l3.345 3.345-1.672 1.672a1.285 1.285 0 0 0-.351 1.188l-.002-.008c.031.149.791 3.677 2.937 5.824s5.675 2.906 5.824 2.937a1.275 1.275 0 0 0 1.179-.35l1.674-1.673 3.345 3.345z"/>
    </symbol>
    <symbol id="icon-single-arrow" viewBox="0 0 31 32">
      <path d="m12.429 22.692 7.305-7.306-7.305-7.305-1.81 1.81 5.495 5.496-5.495 5.495z"/>
    </symbol>
    <symbol id="icon-star" viewBox="0 0 32 32">
      <path stroke-linejoin="miter" stroke-linecap="butt" stroke-miterlimit="4" stroke-width="1.6" d="M15.25 1.534c0.275-0.654 1.225-0.654 1.5 0l3.245 7.709c0.35 0.83 1.137 1.392 2.033 1.463l8.425 0.667c0.732 0.058 0.994 0.936 0.466 1.384l-6.42 5.433c-0.687 0.582-0.991 1.5-0.78 2.376l1.962 8.122c0.159 0.659-0.578 1.237-1.216 0.853h-0.002l-7.211-4.352c-0.77-0.464-1.737-0.464-2.506 0l-7.213 4.352c-0.637 0.384-1.375-0.194-1.216-0.853l1.962-8.122c0.212-0.877-0.092-1.795-0.78-2.376l-6.42-5.433c-0.529-0.448-0.267-1.326 0.466-1.384l8.425-0.667c0.896-0.071 1.683-0.633 2.033-1.463l3.245-7.709z"></path>
    </symbol>
    <symbol id="icon-X" viewBox="0 0 31 32">
      <path d="M21.99 6.426h3.533l-7.718 8.676 9.08 11.804h-7.109l-5.568-7.159-6.373 7.159H4.3l8.256-9.279-8.71-11.2h7.29l5.034 6.543zm-1.241 18.401h1.958L10.07 8.397H7.971z"/>
    </symbol>
  </defs>
</svg>
